<svg xmlns="http://www.w3.org/2000/svg" width="50" height="43" viewBox="0 0 50 43" fill="none">
  <g clip-path="url(#clip0_192_217)">
    <path d="M0.739168 18.6893C2.07328 13.3418 5.15615 8.60643 9.48298 5.22147C13.8278 1.83652 19.1823 0 24.681 0C30.1797 0 35.5341 1.83652 39.879 5.22147C44.2239 8.60643 47.3067 13.3598 48.6228 18.6893H46.4594C42.8176 18.6353 39.23 19.7336 36.2372 21.8042C36.057 21.9302 35.8767 22.0382 35.6964 22.1463H35.444C35.2637 22.0382 35.0834 21.9302 34.9031 21.8042C31.8744 19.7696 28.3227 18.6893 24.663 18.6893C21.0032 18.6893 17.4516 19.7696 14.4408 21.8042C14.2605 21.9302 14.0802 22.0382 13.9 22.1463H13.6476C13.4673 22.0382 13.287 21.9302 13.1067 21.8042C10.114 19.7336 6.52631 18.6353 2.88456 18.6893H0.739168ZM42.5833 29.9785C43.701 29.1142 45.0712 28.6641 46.4774 28.7001H49.38V22.9205H46.4774C44.0075 22.8845 41.5737 23.6587 39.5725 25.1171C38.4367 25.9453 37.0846 26.3954 35.6784 26.3954C34.2721 26.3954 32.92 25.9453 31.7842 25.1171C29.729 23.6947 27.2771 22.9205 24.7892 22.9205C22.3012 22.9205 19.8494 23.6947 17.7761 25.1171C16.6403 25.9453 15.2881 26.3954 13.8819 26.3954C12.4757 26.3954 11.1236 25.9453 9.98778 25.1171C7.95056 23.6407 5.49869 22.8665 2.99273 22.9205H0V28.7001H2.90259C4.30881 28.6641 5.67897 29.1142 6.79674 29.9785C8.85198 31.4009 11.2858 32.1751 13.7918 32.1751C16.2977 32.1751 18.7316 31.4009 20.7868 29.9785C21.9046 29.1142 23.2748 28.6641 24.681 28.7001C26.0872 28.6641 27.4574 29.1142 28.5751 29.9785C30.6304 31.4009 33.0823 32.1751 35.5882 32.1751C38.0942 32.1751 40.528 31.4009 42.6013 29.9785H42.5833ZM42.5833 40.3134C43.701 39.4491 45.0712 38.999 46.4774 39.035H49.38V33.2554H46.4774C44.0075 33.2194 41.5737 33.9936 39.5725 35.452C38.4367 36.2802 37.0846 36.7304 35.6784 36.7304C34.2721 36.7304 32.92 36.2802 31.7842 35.452C29.729 34.0296 27.2771 33.2554 24.7892 33.2554C22.3012 33.2554 19.8494 34.0296 17.7761 35.452C16.6403 36.2802 15.2881 36.7304 13.8819 36.7304C12.4757 36.7304 11.1236 36.2802 9.98778 35.452C7.95056 33.9756 5.49869 33.2014 2.99273 33.2554H0V39.035H2.90259C4.30881 38.999 5.67897 39.4491 6.79674 40.3134C8.85198 41.7358 11.2858 42.51 13.7918 42.51C16.2977 42.51 18.7316 41.7358 20.7868 40.3134C21.9046 39.4491 23.2748 38.999 24.681 39.035C26.0872 38.999 27.4574 39.4491 28.5751 40.3134C30.6304 41.7358 33.0823 42.51 35.5882 42.51C38.0942 42.51 40.528 41.7358 42.6013 40.3134H42.5833Z" fill="#12A594"/>
  </g>
  <defs>
    <clipPath id="clip0_192_217">
      <rect width="49.38" height="42.51" fill="white"/>
    </clipPath>
  </defs>
</svg>