<svg xmlns="http://www.w3.org/2000/svg" width="25" height="25" viewBox="0 0 25 25" fill="none">
  <mask id="mask0_185_206" style="mask-type:alpha" maskUnits="userSpaceOnUse" x="0" y="0" width="25" height="25">
    <rect x="0.611847" y="0.172363" width="24" height="24" fill="#9E6C00"/>
  </mask>
  <g mask="url(#mask0_185_206)">
    <path d="M11.6118 17.1724H13.6118V11.1724H11.6118V17.1724ZM12.6118 9.17236C12.8952 9.17236 13.1327 9.07653 13.3243 8.88486C13.516 8.6932 13.6118 8.4557 13.6118 8.17236C13.6118 7.88903 13.516 7.65153 13.3243 7.45986C13.1327 7.2682 12.8952 7.17236 12.6118 7.17236C12.3285 7.17236 12.091 7.2682 11.8993 7.45986C11.7077 7.65153 11.6118 7.88903 11.6118 8.17236C11.6118 8.4557 11.7077 8.6932 11.8993 8.88486C12.091 9.07653 12.3285 9.17236 12.6118 9.17236ZM12.6118 22.1724C11.2285 22.1724 9.92851 21.9099 8.71185 21.3849C7.49518 20.8599 6.43685 20.1474 5.53685 19.2474C4.63685 18.3474 3.92435 17.289 3.39935 16.0724C2.87435 14.8557 2.61185 13.5557 2.61185 12.1724C2.61185 10.789 2.87435 9.48903 3.39935 8.27236C3.92435 7.0557 4.63685 5.99736 5.53685 5.09736C6.43685 4.19736 7.49518 3.48486 8.71185 2.95986C9.92851 2.43486 11.2285 2.17236 12.6118 2.17236C13.9952 2.17236 15.2952 2.43486 16.5118 2.95986C17.7285 3.48486 18.7868 4.19736 19.6868 5.09736C20.5868 5.99736 21.2993 7.0557 21.8243 8.27236C22.3493 9.48903 22.6118 10.789 22.6118 12.1724C22.6118 13.5557 22.3493 14.8557 21.8243 16.0724C21.2993 17.289 20.5868 18.3474 19.6868 19.2474C18.7868 20.1474 17.7285 20.8599 16.5118 21.3849C15.2952 21.9099 13.9952 22.1724 12.6118 22.1724ZM12.6118 20.1724C14.8452 20.1724 16.7368 19.3974 18.2868 17.8474C19.8368 16.2974 20.6118 14.4057 20.6118 12.1724C20.6118 9.93903 19.8368 8.04736 18.2868 6.49736C16.7368 4.94736 14.8452 4.17236 12.6118 4.17236C10.3785 4.17236 8.48685 4.94736 6.93685 6.49736C5.38685 8.04736 4.61185 9.93903 4.61185 12.1724C4.61185 14.4057 5.38685 16.2974 6.93685 17.8474C8.48685 19.3974 10.3785 20.1724 12.6118 20.1724Z" fill="#9E6C00"/>
  </g>
</svg>