<svg xmlns="http://www.w3.org/2000/svg" width="8" height="6" viewBox="0 0 8 6" fill="none">
  <mask id="path-1-inside-1_16_498" fill="white">
    <path fill-rule="evenodd" clip-rule="evenodd" d="M7.08005 0.171343C7.29807 0.319492 7.35473 0.616333 7.20658 0.834349L3.87342 5.73954C3.79486 5.85515 3.66959 5.93044 3.53067 5.94569C3.39173 5.96094 3.25311 5.91448 3.15138 5.81866L1.08564 3.87255C0.893784 3.69181 0.88478 3.38975 1.06553 3.19789C1.24627 3.00603 1.54833 2.99702 1.74019 3.17777L3.39851 4.74005L6.41708 0.297859C6.56523 0.0798434 6.86204 0.0232017 7.08005 0.171343Z"/>
  </mask>
  <path fill-rule="evenodd" clip-rule="evenodd" d="M7.08005 0.171343C7.29807 0.319492 7.35473 0.616333 7.20658 0.834349L3.87342 5.73954C3.79486 5.85515 3.66959 5.93044 3.53067 5.94569C3.39173 5.96094 3.25311 5.91448 3.15138 5.81866L1.08564 3.87255C0.893784 3.69181 0.88478 3.38975 1.06553 3.19789C1.24627 3.00603 1.54833 2.99702 1.74019 3.17777L3.39851 4.74005L6.41708 0.297859C6.56523 0.0798434 6.86204 0.0232017 7.08005 0.171343Z" fill="white"/>
  <path d="M7.08005 0.171343L7.6421 -0.655763L7.64208 -0.655776L7.08005 0.171343ZM7.20658 0.834349L6.37948 0.272303L6.37947 0.272311L7.20658 0.834349ZM3.87342 5.73954L3.0463 5.1775L3.04628 5.17753L3.87342 5.73954ZM3.53067 5.94569L3.63977 6.93972L3.63978 6.93972L3.53067 5.94569ZM3.15138 5.81866L2.46567 6.54653L2.46572 6.54658L3.15138 5.81866ZM1.08564 3.87255L0.399927 4.60042L1.08564 3.87255ZM1.74019 3.17777L1.05446 3.90563L1.05447 3.90564L1.74019 3.17777ZM3.39851 4.74005L2.71279 5.46792L3.56645 6.27214L4.22561 5.30209L3.39851 4.74005ZM6.41708 0.297859L5.58997 -0.264187L5.58997 -0.264181L6.41708 0.297859ZM6.51801 0.998449C6.2793 0.836242 6.21716 0.511164 6.37948 0.272303L8.03369 1.3964C8.4923 0.721502 8.31683 -0.197258 7.6421 -0.655763L6.51801 0.998449ZM6.37947 0.272311L3.0463 5.1775L4.70053 6.30157L8.03369 1.39639L6.37947 0.272311ZM3.04628 5.17753C3.13248 5.05067 3.26978 4.96832 3.42155 4.95166L3.63978 6.93972C4.06939 6.89256 4.45724 6.65963 4.70055 6.30154L3.04628 5.17753ZM3.42156 4.95166C3.57394 4.93494 3.72575 4.9859 3.83705 5.09074L2.46572 6.54658C2.78048 6.84307 3.20953 6.98695 3.63977 6.93972L3.42156 4.95166ZM3.8371 5.09079L1.77136 3.14468L0.399927 4.60042L2.46567 6.54653L3.8371 5.09079ZM1.77136 3.14468C1.9815 3.34265 1.99135 3.67348 1.7934 3.88361L0.337658 2.51217C-0.221792 3.10601 -0.193931 4.04096 0.399927 4.60042L1.77136 3.14468ZM1.7934 3.88361C1.59544 4.09373 1.26461 4.10361 1.05446 3.90563L2.42592 2.44992C1.83206 1.89042 0.897105 1.91834 0.337658 2.51217L1.7934 3.88361ZM1.05447 3.90564L2.71279 5.46792L4.08422 4.01218L2.42591 2.4499L1.05447 3.90564ZM4.22561 5.30209L7.24419 0.8599L5.58997 -0.264181L2.5714 4.17801L4.22561 5.30209ZM7.24418 0.859905C7.08194 1.09866 6.75683 1.16073 6.51803 0.998463L7.64208 -0.655776C6.96725 -1.11432 6.04851 -0.938974 5.58997 -0.264187L7.24418 0.859905Z" fill="#008573" mask="url(#path-1-inside-1_16_498)"/>
</svg>