<svg xmlns="http://www.w3.org/2000/svg" width="96" height="96" viewBox="0 0 96 96" fill="none">
  <rect width="96" height="96" rx="48" fill="#008573"/>
  <path d="M41.5921 22.2262L41.5925 22.2268L45.7389 29.114L39.6633 39.149L30.5304 33.6826L37.4181 22.2265L37.4183 22.2262C37.9154 21.3978 38.5948 21.0106 39.5052 21.0106C40.4156 21.0106 41.0951 21.3978 41.5921 22.2262ZM75.9355 51.1006L75.94 51.1081L75.9448 51.1155C76.4297 51.8649 76.6956 52.7024 76.7402 53.6385C76.7844 54.5685 76.5862 55.4238 76.1463 56.2157L76.141 56.2252L76.1361 56.2349C75.6927 57.1217 75.0408 57.8303 74.1703 58.366C73.3015 58.9006 72.3593 59.1668 71.3333 59.1668H68.3349L62.2537 49.0543L71.5212 43.7204L75.9355 51.1006ZM59.1667 74.2502V78.8764L48.7071 68.4168L59.1667 57.9573V62.5835V63.0835H59.6667H72.7118L68.8489 70.8093C68.3547 71.7047 67.6855 72.4166 66.8372 72.9524C65.9954 73.484 65.0676 73.7502 64.0417 73.7502H59.6667H59.1667V74.2502ZM27.4524 71.2664L27.4525 71.2664L27.4472 71.2557C27.0944 70.55 26.931 69.8173 26.9529 69.0509C26.9748 68.2864 27.181 67.5806 27.5738 66.9254C27.5741 66.9249 27.5743 66.9245 27.5746 66.9241L29.9064 63.0835H41.6667V73.7502H31.4479C30.5685 73.7502 29.7749 73.5209 29.0549 73.0627L28.7865 73.4845L29.0549 73.0627C28.3292 72.6009 27.7993 72.0035 27.4524 71.2664ZM21.1332 48.447L17.2039 46.0778L31.5217 42.482L35.1153 56.8564L31.1246 54.4272L30.6943 54.1653L30.4356 54.5975L24.2686 64.8984L19.9368 56.2349C19.5366 55.4344 19.3473 54.5798 19.3696 53.6634C19.3917 52.7573 19.6447 51.9069 20.135 51.1046L20.135 51.1047L20.1385 51.0988L21.3052 49.1301L21.5581 48.7032L21.1332 48.447ZM53.0952 33.7426L44.4359 19.3335H53.8333C54.7665 19.3335 55.6417 19.5657 56.4667 20.034C57.2922 20.5025 57.9467 21.1349 58.4367 21.9359C58.4371 21.9366 58.4375 21.9373 58.438 21.938L62.2271 28.2775L62.4874 28.713L62.919 28.4464L66.8313 26.03L63.2405 40.3933L48.9333 36.8002L52.9221 34.43L53.3541 34.1733L53.0952 33.7426Z" fill="white" stroke="#12A594"/>
</svg>