<svg xmlns="http://www.w3.org/2000/svg" width="96" height="96" viewBox="0 0 96 96" fill="none">
  <rect width="96" height="96" rx="48" fill="#008573"/>
  <path d="M45.785 78L52.13 70.7045L46.73 67.9773L54.56 58.9091H61.715L55.37 66.2045L60.77 68.9318L52.94 78H45.785ZM29.585 78L35.93 70.7045L30.53 67.9773L38.36 58.9091H45.515L39.17 66.2045L44.57 68.9318L36.74 78H29.585ZM34.85 56.1818C30.755 56.1818 27.2563 54.7159 24.3538 51.7841C21.4513 48.8523 20 45.3182 20 41.1818C20 37.4091 21.2375 34.1136 23.7125 31.2955C26.1875 28.4773 29.2475 26.8182 32.8925 26.3182C34.3325 23.7273 36.3013 21.6932 38.7988 20.2159C41.2963 18.7386 44.03 18 47 18C51.05 18 54.5713 19.3068 57.5638 21.9205C60.5563 24.5341 62.3675 27.7955 62.9975 31.7045C66.1025 31.9773 68.7125 33.2727 70.8275 35.5909C72.9425 37.9091 74 40.6818 74 43.9091C74 47.3182 72.8188 50.2159 70.4563 52.6023C68.0938 54.9886 65.225 56.1818 61.85 56.1818H34.85ZM34.85 50.7273H61.85C63.74 50.7273 65.3375 50.0682 66.6425 48.75C67.9475 47.4318 68.6 45.8182 68.6 43.9091C68.6 42 67.9475 40.3864 66.6425 39.0682C65.3375 37.75 63.74 37.0909 61.85 37.0909H57.8V34.3636C57.8 31.3636 56.7425 28.7955 54.6275 26.6591C52.5125 24.5227 49.97 23.4545 47 23.4545C44.84 23.4545 42.8713 24.0455 41.0938 25.2273C39.3163 26.4091 37.9775 28 37.0775 30L36.4025 31.6364H34.715C32.15 31.7273 29.9563 32.6932 28.1338 34.5341C26.3113 36.375 25.4 38.5909 25.4 41.1818C25.4 43.8182 26.3225 46.0682 28.1675 47.9318C30.0125 49.7955 32.24 50.7273 34.85 50.7273Z" fill="white"/>
</svg>