<svg xmlns="http://www.w3.org/2000/svg" width="24" height="24" viewBox="0 0 24 24" fill="none">
  <mask id="mask0_16_397" style="mask-type:alpha" maskUnits="userSpaceOnUse" x="0" y="0" width="24" height="24">
    <rect width="24" height="24" fill="#D9D9D9"/>
  </mask>
  <g mask="url(#mask0_16_397)">
    <path d="M4 13C3.16667 13 2.45833 12.7083 1.875 12.125C1.29167 11.5417 1 10.8333 1 10C1 9.16667 1.29167 8.45833 1.875 7.875C2.45833 7.29167 3.16667 7 4 7C4.83333 7 5.54167 7.29167 6.125 7.875C6.70833 8.45833 7 9.16667 7 10C7 10.8333 6.70833 11.5417 6.125 12.125C5.54167 12.7083 4.83333 13 4 13ZM2 19V17H22V19H2ZM12 13C11.1667 13 10.4583 12.7083 9.875 12.125C9.29167 11.5417 9 10.8333 9 10C9 9.16667 9.29167 8.45833 9.875 7.875C10.4583 7.29167 11.1667 7 12 7C12.8333 7 13.5417 7.29167 14.125 7.875C14.7083 8.45833 15 9.16667 15 10C15 10.8333 14.7083 11.5417 14.125 12.125C13.5417 12.7083 12.8333 13 12 13ZM20 13C19.1667 13 18.4583 12.7083 17.875 12.125C17.2917 11.5417 17 10.8333 17 10C17 9.16667 17.2917 8.45833 17.875 7.875C18.4583 7.29167 19.1667 7 20 7C20.8333 7 21.5417 7.29167 22.125 7.875C22.7083 8.45833 23 9.16667 23 10C23 10.8333 22.7083 11.5417 22.125 12.125C21.5417 12.7083 20.8333 13 20 13Z" fill="#008573"/>
  </g>
</svg>