<?xml version="1.0" encoding="utf-8"?>
<!-- Generator: Adobe Illustrator 27.4.0, SVG Export Plug-In . SVG Version: 6.00 Build 0)  -->
<svg version="1.1" id="Camada_1" xmlns="http://www.w3.org/2000/svg" xmlns:xlink="http://www.w3.org/1999/xlink" x="0px" y="0px"
	 viewBox="0 0 238 63" style="enable-background:new 0 0 238 63;" xml:space="preserve">
<style type="text/css">
	.st0{fill:#1EA592;}
	.st1{fill:#0CA594;}
</style>
<path class="st0" d="M10.16,28.94c1.33-5.34,4.4-10.08,8.74-13.46c4.33-3.39,9.68-5.23,15.18-5.23s10.84,1.84,15.18,5.23
	c4.33,3.39,7.41,8.13,8.74,13.46h-2.16c-3.64-0.05-7.21,1.04-10.21,3.11c-0.17,0.13-0.35,0.24-0.54,0.34h-0.25
	c-0.19-0.1-0.37-0.22-0.54-0.34c-3.02-2.03-6.58-3.12-10.22-3.12c-3.64,0-7.2,1.08-10.21,3.12c-0.17,0.13-0.35,0.24-0.54,0.34h-0.25
	c-0.19-0.1-0.37-0.22-0.54-0.34c-2.99-2.08-6.56-3.17-10.21-3.11H10.16z M51.93,40.23c1.11-0.86,2.48-1.32,3.89-1.28h2.9v-5.78h-2.9
	c-2.47-0.03-4.89,0.74-6.89,2.2c-1.13,0.83-2.49,1.28-3.89,1.28c-1.4,0-2.76-0.45-3.89-1.28c-2.05-1.43-4.49-2.19-6.99-2.19
	c-2.5,0-4.94,0.77-6.99,2.19c-1.13,0.83-2.49,1.28-3.89,1.28c-1.4,0-2.76-0.45-3.89-1.28c-2.03-1.47-4.48-2.25-6.98-2.2H9.42v5.78
	h2.9c1.4-0.04,2.78,0.41,3.89,1.28c2.05,1.43,4.49,2.2,6.98,2.2s4.94-0.77,6.98-2.2c1.11-0.86,2.48-1.31,3.89-1.28
	c1.41-0.04,2.78,0.41,3.89,1.28c2.05,1.43,4.49,2.19,6.99,2.19S49.88,41.65,51.93,40.23L51.93,40.23z M51.93,50.56
	c1.11-0.86,2.48-1.32,3.89-1.28h2.9V43.5h-2.9c-2.47-0.03-4.89,0.74-6.89,2.2c-1.13,0.83-2.49,1.28-3.89,1.28
	c-1.4,0-2.76-0.45-3.89-1.28c-2.05-1.43-4.49-2.19-6.99-2.19c-2.5,0-4.94,0.77-6.99,2.19c-1.13,0.83-2.49,1.28-3.89,1.28
	c-1.4,0-2.76-0.45-3.89-1.28c-2.03-1.47-4.48-2.25-6.98-2.2H9.42v5.78h2.9c1.4-0.04,2.78,0.41,3.89,1.28
	c2.05,1.43,4.49,2.2,6.98,2.2s4.94-0.77,6.98-2.2c1.11-0.86,2.48-1.31,3.89-1.28c1.41-0.04,2.78,0.41,3.89,1.28
	c2.05,1.43,4.49,2.19,6.99,2.19S49.88,51.99,51.93,50.56L51.93,50.56z"/>
<path class="st1" d="M92.28,26.15h3.17c0.35,0,0.47,0.22,0.4,0.52l-5.6,16.6c-0.1,0.27-0.3,0.38-0.55,0.38h-2.97
	c-0.25,0-0.45-0.1-0.52-0.38L82.38,32.3l-3.77,10.97c-0.07,0.27-0.27,0.38-0.52,0.38h-3c-0.25,0-0.45-0.1-0.53-0.38l-5.6-16.6
	c-0.1-0.3,0.05-0.52,0.4-0.52h3.15c0.25,0,0.45,0.1,0.52,0.38l3.65,11.32l3.95-11.22c0.1-0.27,0.27-0.37,0.55-0.37h2.42
	c0.25,0,0.42,0.1,0.53,0.37l3.97,11.25l3.65-11.35C91.83,26.25,92.03,26.15,92.28,26.15z"/>
<path class="st1" d="M110.13,43.74c-0.67,0.2-1.27,0.3-1.87,0.3c-1.52,0-2.62-0.57-3.15-1.52c-1.17,1.02-2.57,1.52-4.2,1.52
	c-3.87,0-6.57-2.65-6.57-6.45c0-3.82,2.7-6.47,6.57-6.47c1.33,0,2.55,0.38,3.55,1.15V32c0-0.3,0.17-0.48,0.47-0.48h2.75
	c0.3,0,0.48,0.17,0.48,0.48v7.85c0,0.65,0.3,0.97,0.82,0.97c0.25,0,0.45,0,0.78-0.08c0.3-0.02,0.5,0.08,0.52,0.4l0.25,2.07
	C110.56,43.49,110.43,43.67,110.13,43.74z M104.38,37.59c0-2.1-1.27-3.55-3.15-3.55c-1.9,0-3.22,1.45-3.22,3.55
	c0,2.07,1.33,3.52,3.22,3.52C103.11,41.12,104.38,39.67,104.38,37.59z"/>
<path class="st1" d="M114.43,43.29l-5.22-11.22c-0.12-0.32,0.03-0.55,0.38-0.55h2.97c0.27,0,0.45,0.12,0.55,0.35l3.25,7.25l3.3-7.25
	c0.1-0.23,0.28-0.35,0.53-0.35h2.95c0.35,0,0.52,0.23,0.38,0.55l-5.22,11.22c-0.1,0.23-0.28,0.35-0.53,0.35h-2.8
	C114.71,43.64,114.53,43.52,114.43,43.29z"/>
<path class="st1" d="M122.61,37.59c0-3.9,2.67-6.47,6.65-6.47c4.05,0,6.52,2.57,6.52,6.37c0,0.27-0.03,0.57-0.03,0.85
	c-0.05,0.3-0.25,0.42-0.52,0.42h-8.97c0.4,1.5,1.65,2.42,3.3,2.42c0.88,0,1.62-0.27,2.05-0.75c0.2-0.15,0.35-0.25,0.6-0.25h2.8
	c0.35,0,0.53,0.2,0.4,0.5c-0.85,2.07-3.1,3.35-5.92,3.35C125.39,44.04,122.61,41.47,122.61,37.59z M132.21,36.54
	c-0.08-1.55-1.17-2.65-2.85-2.65c-1.65,0-2.9,1.07-3.12,2.65H132.21z"/>
<path class="st1" d="M152.73,43.64h-3.75c-0.22,0-0.38-0.1-0.55-0.27l-8.15-8.02v7.82c0,0.3-0.17,0.48-0.47,0.48h-2.97
	c-0.27,0-0.47-0.17-0.47-0.48V26.62c0-0.3,0.2-0.47,0.47-0.47h2.97c0.3,0,0.47,0.17,0.47,0.47v7.97l7.55-8.2
	c0.15-0.18,0.38-0.25,0.6-0.25h3.57c0.4,0,0.52,0.27,0.25,0.57l-7.55,8.17l8.3,8.2C153.28,43.37,153.11,43.64,152.73,43.64z"/>
<path class="st1" d="M151.71,37.59c0-3.9,2.67-6.47,6.65-6.47c4.05,0,6.52,2.57,6.52,6.37c0,0.27-0.03,0.57-0.03,0.85
	c-0.05,0.3-0.25,0.42-0.52,0.42h-8.97c0.4,1.5,1.65,2.42,3.3,2.42c0.88,0,1.62-0.27,2.05-0.75c0.2-0.15,0.35-0.25,0.6-0.25h2.8
	c0.35,0,0.53,0.2,0.4,0.5c-0.85,2.07-3.1,3.35-5.92,3.35C154.48,44.04,151.71,41.47,151.71,37.59z M161.31,36.54
	c-0.08-1.55-1.17-2.65-2.85-2.65c-1.65,0-2.9,1.07-3.12,2.65H161.31z"/>
<path class="st1" d="M164.81,37.59c0-3.9,2.67-6.47,6.65-6.47c4.05,0,6.52,2.57,6.52,6.37c0,0.27-0.03,0.57-0.03,0.85
	c-0.05,0.3-0.25,0.42-0.52,0.42h-8.97c0.4,1.5,1.65,2.42,3.3,2.42c0.88,0,1.62-0.27,2.05-0.75c0.2-0.15,0.35-0.25,0.6-0.25h2.8
	c0.35,0,0.53,0.2,0.4,0.5c-0.85,2.07-3.1,3.35-5.92,3.35C167.58,44.04,164.81,41.47,164.81,37.59z M174.41,36.54
	c-0.08-1.55-1.17-2.65-2.85-2.65c-1.65,0-2.9,1.07-3.12,2.65H174.41z"/>
<path class="st1" d="M193.43,37.59c0,3.8-2.7,6.45-6.6,6.45c-1.25,0-2.45-0.32-3.47-1.07v6.02c0,0.28-0.17,0.45-0.47,0.45h-2.8
	c-0.3,0-0.47-0.17-0.47-0.45V35.32c0-0.68-0.27-0.98-0.97-0.98c-0.15,0-0.4,0.05-0.55,0.08c-0.33,0-0.55-0.08-0.55-0.4v-2.05
	c0-0.3,0.1-0.45,0.38-0.55c0.57-0.22,1.22-0.3,1.8-0.3c1.42,0,2.52,0.62,3.02,1.6c1.1-1.07,2.58-1.6,4.1-1.6
	C190.73,31.12,193.43,33.77,193.43,37.59z M189.76,37.59c0-2.1-1.35-3.55-3.22-3.55c-1.88,0-3.17,1.45-3.17,3.55
	c0,2.07,1.3,3.52,3.17,3.52C188.41,41.12,189.76,39.67,189.76,37.59z"/>
<path class="st1" d="M193.33,37.59c0-3.9,2.67-6.47,6.65-6.47c4.05,0,6.52,2.57,6.52,6.37c0,0.27-0.03,0.57-0.03,0.85
	c-0.05,0.3-0.25,0.42-0.52,0.42h-8.97c0.4,1.5,1.65,2.42,3.3,2.42c0.88,0,1.62-0.27,2.05-0.75c0.2-0.15,0.35-0.25,0.6-0.25h2.8
	c0.35,0,0.53,0.2,0.4,0.5c-0.85,2.07-3.1,3.35-5.92,3.35C196.11,44.04,193.33,41.47,193.33,37.59z M202.93,36.54
	c-0.08-1.55-1.17-2.65-2.85-2.65c-1.65,0-2.9,1.07-3.12,2.65H202.93z"/>
<path class="st1" d="M217.43,31.9l-0.33,2.4c-0.05,0.3-0.25,0.42-0.55,0.38c-0.38-0.08-0.9-0.12-1.37-0.12c-1.9,0-3.3,1.2-3.3,3.25
	v5.37c0,0.3-0.17,0.48-0.47,0.48h-2.8c-0.3,0-0.47-0.17-0.47-0.48v-7.85c0-0.68-0.27-0.98-0.97-0.98c-0.15,0-0.4,0.05-0.55,0.08
	c-0.33,0-0.55-0.08-0.55-0.4v-2.05c0-0.3,0.1-0.45,0.38-0.55c0.57-0.2,1.22-0.3,1.8-0.3c1.45,0,2.55,0.65,3.02,1.7
	c1-1.1,2.42-1.7,4.07-1.7c0.6,0,1.27,0.08,1.72,0.23C217.36,31.42,217.46,31.62,217.43,31.9z"/>
<path class="st1" d="M216.61,40.12c-0.05-0.33,0.15-0.5,0.47-0.5l2.45,0.02c0.3,0,0.4,0.12,0.55,0.35c0.33,0.85,1.27,1.35,2.72,1.35
	c1.22,0,2.05-0.45,2.05-1.1c0-2.37-7.8,0.03-7.8-5.2c0-2.35,2.22-3.92,5.55-3.92c3.12,0,5.42,1.42,5.77,3.6
	c0.05,0.33-0.15,0.5-0.45,0.5h-2.47c-0.28,0-0.4-0.12-0.5-0.3c-0.3-0.75-1.22-1.23-2.3-1.23c-1.15,0-1.95,0.4-1.95,1.05
	c0,2.5,7.87,0.15,7.87,5.32c0,2.45-2.22,3.97-5.77,3.97C219.31,44.04,216.98,42.57,216.61,40.12z"/>
</svg>
